<svg xmlns="http://www.w3.org/2000/svg" width="1120" height="390" viewBox="0 0 1120 390" role="img" aria-labelledby="title desc">
<title id="title">GitHub contribution activity histogram</title>
<desc id="desc">63 contributions across the last year, grouped by month.</desc>
<defs><linearGradient id="bg" x1="0" y1="0" x2="0" y2="1"><stop offset="0" stop-color="#111821"/><stop offset="1" stop-color="#0d1117"/></linearGradient><linearGradient id="bar" x1="0" y1="0" x2="0" y2="1"><stop offset="0" stop-color="#39d353"/><stop offset="1" stop-color="#238636"/></linearGradient></defs>
<rect x="1" y="1" width="1118" height="388" rx="18" fill="url(#bg)" stroke="#30363d" stroke-width="2"/>
<g font-family="-apple-system,BlinkMacSystemFont,'Segoe UI',sans-serif">
<text x="42" y="38" fill="#f0f6fc" font-size="20" font-weight="700">GitHub contribution activity</text>
<text x="42" y="60" fill="#8b949e" font-size="12">Monthly contributions · Sep 2025 – Sep 2026 · 63 total</text>
<g stroke="#21262d" stroke-width="1"><line x1="82" y1="70" x2="1060" y2="70"/><line x1="82" y1="135" x2="1060" y2="135"/><line x1="82" y1="200" x2="1060" y2="200"/><line x1="82" y1="265" x2="1060" y2="265"/><line x1="82" y1="330" x2="1060" y2="330"/></g>
<g fill="#8b949e" font-size="11" text-anchor="end"><text x="70" y="74">13</text><text x="70" y="139">10</text><text x="70" y="204">7</text><text x="70" y="269">4</text><text x="70" y="334">0</text></g>
<rect x="82.0" y="330.0" width="54" height="2.0" rx="7" fill="#21262d" opacity=".65"/><text x="109.0" y="320.0" text-anchor="middle" fill="#8b949e" font-size="13">0</text><text x="109.0" y="357" text-anchor="middle" fill="#8b949e" font-size="12">Sep '25</text><rect x="159.0" y="170.0" width="54" height="160.0" rx="7" fill="#238636" opacity="1"/><text x="186.0" y="160.0" text-anchor="middle" fill="#8b949e" font-size="13">8</text><text x="186.0" y="357" text-anchor="middle" fill="#8b949e" font-size="12">Oct</text><rect x="236.0" y="330.0" width="54" height="2.0" rx="7" fill="#21262d" opacity=".65"/><text x="263.0" y="320.0" text-anchor="middle" fill="#8b949e" font-size="13">0</text><text x="263.0" y="357" text-anchor="middle" fill="#8b949e" font-size="12">Nov</text><rect x="313.0" y="190.0" width="54" height="140.0" rx="7" fill="#238636" opacity="1"/><text x="340.0" y="180.0" text-anchor="middle" fill="#8b949e" font-size="13">7</text><text x="340.0" y="357" text-anchor="middle" fill="#8b949e" font-size="12">Dec</text><rect x="390.0" y="250.0" width="54" height="80.0" rx="7" fill="#238636" opacity="1"/><text x="417.0" y="240.0" text-anchor="middle" fill="#8b949e" font-size="13">4</text><text x="417.0" y="357" text-anchor="middle" fill="#8b949e" font-size="12">Jan '26</text><rect x="467.0" y="330.0" width="54" height="2.0" rx="7" fill="#21262d" opacity=".65"/><text x="494.0" y="320.0" text-anchor="middle" fill="#8b949e" font-size="13">0</text><text x="494.0" y="357" text-anchor="middle" fill="#8b949e" font-size="12">Feb</text><rect x="544.0" y="290.0" width="54" height="40.0" rx="7" fill="#238636" opacity="1"/><text x="571.0" y="280.0" text-anchor="middle" fill="#8b949e" font-size="13">2</text><text x="571.0" y="357" text-anchor="middle" fill="#8b949e" font-size="12">Mar</text><rect x="621.0" y="330.0" width="54" height="2.0" rx="7" fill="#21262d" opacity=".65"/><text x="648.0" y="320.0" text-anchor="middle" fill="#8b949e" font-size="13">0</text><text x="648.0" y="357" text-anchor="middle" fill="#8b949e" font-size="12">Apr</text><rect x="698.0" y="330.0" width="54" height="2.0" rx="7" fill="#21262d" opacity=".65"/><text x="725.0" y="320.0" text-anchor="middle" fill="#8b949e" font-size="13">0</text><text x="725.0" y="357" text-anchor="middle" fill="#8b949e" font-size="12">May</text><rect x="775.0" y="130.0" width="54" height="200.0" rx="7" fill="#238636" opacity="1"/><text x="802.0" y="120.0" text-anchor="middle" fill="#8b949e" font-size="13">10</text><text x="802.0" y="357" text-anchor="middle" fill="#8b949e" font-size="12">Jun</text><rect x="852.0" y="70.0" width="54" height="260.0" rx="7" fill="#238636" opacity="1"/><text x="879.0" y="60.0" text-anchor="middle" fill="#8b949e" font-size="13">13</text><text x="879.0" y="357" text-anchor="middle" fill="#8b949e" font-size="12">Jul</text><rect x="929.0" y="110.0" width="54" height="220.0" rx="7" fill="#238636" opacity="1"/><text x="956.0" y="100.0" text-anchor="middle" fill="#8b949e" font-size="13">11</text><text x="956.0" y="357" text-anchor="middle" fill="#8b949e" font-size="12">Aug</text><rect x="1006.0" y="170.0" width="54" height="160.0" rx="7" fill="#238636" opacity="1"/><text x="1033.0" y="160.0" text-anchor="middle" fill="#8b949e" font-size="13">8</text><text x="1033.0" y="357" text-anchor="middle" fill="#8b949e" font-size="12">Sep '26</text>
<line x1="82" y1="330" x2="1060" y2="330" stroke="#30363d" stroke-width="2"/>
</g></svg>