<svg xmlns="http://www.w3.org/2000/svg" width="1120" height="370" viewBox="0 0 1120 370"><defs><linearGradient id="bg" x1="0" y1="0" x2="0" y2="1"><stop offset="0" stop-color="#111821"/><stop offset="1" stop-color="#0d1117"/></linearGradient><linearGradient id="bar" x1="0" y1="0" x2="0" y2="1"><stop offset="0" stop-color="#39d353"/><stop offset="1" stop-color="#238636"/></linearGradient></defs><rect x="1" y="1" width="1118" height="368" rx="18" fill="url(#bg)" stroke="#30363d" stroke-width="2"/><g font-family="-apple-system,BlinkMacSystemFont,'Segoe UI',sans-serif"><text x="48" y="38" fill="#f0f6fc" font-size="20" font-weight="700">GitHub contribution histogram</text><text x="48" y="61" fill="#8b949e" font-size="12">Monthly contributions · Sep 2025 – Sep 2026 · 63 total</text><g stroke="#21262d" stroke-width="1"><line x1="86" y1="88" x2="1058" y2="88"/><line x1="86" y1="144.75" x2="1058" y2="144.75"/><line x1="86" y1="201.5" x2="1058" y2="201.5"/><line x1="86" y1="258.25" x2="1058" y2="258.25"/><line x1="86" y1="315" x2="1058" y2="315"/></g><g fill="#8b949e" font-size="11" text-anchor="end"><text x="75" y="92">13</text><text x="75" y="149">10</text><text x="75" y="206">7</text><text x="75" y="263">4</text><text x="75" y="319">0</text></g><rect x="86.0" y="315.0" width="52" height="4.0" rx="6" fill="#21262d"/><text x="112.0" y="305.0" text-anchor="middle" fill="#6e7681" font-size="13" font-weight="400">0</text><text x="112.0" y="342" text-anchor="middle" fill="#8b949e" font-size="12">Sep '25</text><rect x="162.7" y="175.3" width="52" height="139.7" rx="6" fill="url(#bar)"/><text x="188.7" y="165.3" text-anchor="middle" fill="#c9d1d9" font-size="13" font-weight="600">8</text><text x="188.7" y="342" text-anchor="middle" fill="#8b949e" font-size="12">Oct</text><rect x="239.3" y="315.0" width="52" height="4.0" rx="6" fill="#21262d"/><text x="265.3" y="305.0" text-anchor="middle" fill="#6e7681" font-size="13" font-weight="400">0</text><text x="265.3" y="342" text-anchor="middle" fill="#8b949e" font-size="12">Nov</text><rect x="316.0" y="192.8" width="52" height="122.2" rx="6" fill="url(#bar)"/><text x="342.0" y="182.8" text-anchor="middle" fill="#c9d1d9" font-size="13" font-weight="600">7</text><text x="342.0" y="342" text-anchor="middle" fill="#8b949e" font-size="12">Dec</text><rect x="392.7" y="245.2" width="52" height="69.8" rx="6" fill="url(#bar)"/><text x="418.7" y="235.2" text-anchor="middle" fill="#c9d1d9" font-size="13" font-weight="600">4</text><text x="418.7" y="342" text-anchor="middle" fill="#8b949e" font-size="12">Jan '26</text><rect x="469.3" y="315.0" width="52" height="4.0" rx="6" fill="#21262d"/><text x="495.3" y="305.0" text-anchor="middle" fill="#6e7681" font-size="13" font-weight="400">0</text><text x="495.3" y="342" text-anchor="middle" fill="#8b949e" font-size="12">Feb</text><rect x="546.0" y="280.1" width="52" height="34.9" rx="6" fill="url(#bar)"/><text x="572.0" y="270.1" text-anchor="middle" fill="#c9d1d9" font-size="13" font-weight="600">2</text><text x="572.0" y="342" text-anchor="middle" fill="#8b949e" font-size="12">Mar</text><rect x="622.7" y="315.0" width="52" height="4.0" rx="6" fill="#21262d"/><text x="648.7" y="305.0" text-anchor="middle" fill="#6e7681" font-size="13" font-weight="400">0</text><text x="648.7" y="342" text-anchor="middle" fill="#8b949e" font-size="12">Apr</text><rect x="699.3" y="315.0" width="52" height="4.0" rx="6" fill="#21262d"/><text x="725.3" y="305.0" text-anchor="middle" fill="#6e7681" font-size="13" font-weight="400">0</text><text x="725.3" y="342" text-anchor="middle" fill="#8b949e" font-size="12">May</text><rect x="776.0" y="140.4" width="52" height="174.6" rx="6" fill="url(#bar)"/><text x="802.0" y="130.4" text-anchor="middle" fill="#c9d1d9" font-size="13" font-weight="600">10</text><text x="802.0" y="342" text-anchor="middle" fill="#8b949e" font-size="12">Jun</text><rect x="852.7" y="88.0" width="52" height="227.0" rx="6" fill="url(#bar)"/><text x="878.7" y="78.0" text-anchor="middle" fill="#c9d1d9" font-size="13" font-weight="600">13</text><text x="878.7" y="342" text-anchor="middle" fill="#8b949e" font-size="12">Jul</text><rect x="929.3" y="122.9" width="52" height="192.1" rx="6" fill="url(#bar)"/><text x="955.3" y="112.9" text-anchor="middle" fill="#c9d1d9" font-size="13" font-weight="600">11</text><text x="955.3" y="342" text-anchor="middle" fill="#8b949e" font-size="12">Aug</text><rect x="1006.0" y="175.3" width="52" height="139.7" rx="6" fill="url(#bar)"/><text x="1032.0" y="165.3" text-anchor="middle" fill="#c9d1d9" font-size="13" font-weight="600">8</text><text x="1032.0" y="342" text-anchor="middle" fill="#8b949e" font-size="12">Sep '26</text><line x1="86" y1="315" x2="1058" y2="315" stroke="#30363d" stroke-width="2"/></g></svg>